PathFileType  4	(X/Y/Z) C:\Users\wagnerel85475\Documents\Thesis\opencap-core\Data\3375ffbc-daeb-4a43-b4f7-ac9899cd4c71\MarkerData\PreAugmentation
DataRate	CameraRate	NumFrames	NumMarkers	Units	OrigDataRate	OrigDataStartFrame	OrigNumFrames
60.0	60.0	14	20	m	60.0	53	423
Frame#	Time	Neck			RShoulder			RElbow			RWrist			LShoulder			LElbow			LWrist			midHip			RHip			RKnee			RAnkle			LHip			LKnee			LAnkle			LBigToe			LSmallToe			LHeel			RBigToe			RSmallToe			RHeel			
		X1	Y1	Z1	X2	Y2	Z2	X3	Y3	Z3	X4	Y4	Z4	X5	Y5	Z5	X6	Y6	Z6	X7	Y7	Z7	X8	Y8	Z8	X9	Y9	Z9	X10	Y10	Z10	X11	Y11	Z11	X12	Y12	Z12	X13	Y13	Z13	X14	Y14	Z14	X15	Y15	Z15	X16	Y16	Z16	X17	Y17	Z17	X18	Y18	Z18	X19	Y19	Z19	X20	Y20	Z20	

53	0.8666667	0.2614300	1.8473400	-0.1329300	0.2569400	1.8049900	0.0553000	0.2001600	1.5137800	0.1074800	0.3034200	1.2242500	0.1469900	0.2412500	1.9028000	-0.2957400	0.3669200	2.1849000	-0.4181800	0.3909300	2.4725000	-0.3799500	0.3034600	1.2818700	-0.1338200	0.3156700	1.2829500	-0.0205200	0.1962300	0.7587100	-0.0422600	0.1850300	0.2743000	-0.0313100	0.3092600	1.2745700	-0.2527000	0.2317100	0.7835100	-0.2128800	0.1998900	0.2786200	-0.2182100	0.3753100	0.1972700	-0.2401400	0.3066000	0.2008300	-0.2847500	0.1298900	0.2255900	-0.1906400	0.4033800	0.2019100	-0.0192200	0.3643200	0.2051800	0.0266900	0.1530500	0.2274500	-0.0533600
54	0.8833333	0.2627000	1.8470600	-0.1331900	0.2575400	1.8080100	0.0554000	0.2004600	1.5136800	0.1073500	0.3034700	1.2245800	0.1472100	0.2415700	1.9033700	-0.2961500	0.3768600	2.1789800	-0.4224300	0.4017900	2.4703000	-0.3838700	0.3035900	1.2775800	-0.1340900	0.2952400	1.2782300	-0.0193100	0.1970400	0.7581700	-0.0422000	0.1850700	0.2744500	-0.0313400	0.3093100	1.2746600	-0.2527900	0.2313700	0.7873000	-0.2130100	0.2008000	0.2752800	-0.2177100	0.3760900	0.1973700	-0.2403500	0.3060900	0.2007000	-0.2847200	0.1304800	0.2257900	-0.1906600	0.4031400	0.2019300	-0.0194200	0.3641000	0.2052800	0.0267700	0.1510900	0.2238300	-0.0524900
55	0.9000000	0.2614400	1.8473900	-0.1328900	0.2570600	1.8050800	0.0553600	0.2002400	1.5138400	0.1074800	0.3033900	1.2243300	0.1469800	0.2418900	1.8987000	-0.2954200	0.3770200	2.1793300	-0.4223500	0.4115500	2.4672200	-0.3876500	0.3033100	1.2776700	-0.1338500	0.2944200	1.2784300	-0.0194500	0.2076900	0.7599600	-0.0386700	0.1850600	0.2742700	-0.0313000	0.3090200	1.2743500	-0.2527500	0.2315000	0.7871100	-0.2130700	0.2009300	0.2751400	-0.2179000	0.3753400	0.1971300	-0.2401600	0.3066000	0.2008200	-0.2847800	0.1409300	0.2279900	-0.1949600	0.4033900	0.2019200	-0.0191900	0.3643600	0.2051900	0.0267200	0.1509900	0.2235900	-0.0526300
56	0.9166667	0.2627500	1.8471000	-0.1332000	0.2573600	1.8049200	0.0552800	0.1906100	1.5141400	0.1120500	0.3033700	1.2247200	0.1472600	0.2422900	1.8992500	-0.2958600	0.3768100	2.1786900	-0.4226100	0.4123700	2.4677700	-0.3877200	0.2932600	1.2772400	-0.1297100	0.2948600	1.2781800	-0.0192100	0.2086100	0.7629500	-0.0388300	0.1850300	0.2745000	-0.0313200	0.3093000	1.2704000	-0.2525900	0.2313100	0.7829600	-0.2130600	0.2008400	0.2752600	-0.2177200	0.3762200	0.1973500	-0.2403400	0.3061600	0.2007300	-0.2847100	0.1304000	0.2257700	-0.1906700	0.4033100	0.2019900	-0.0194400	0.3642600	0.2052800	0.0267200	0.1531000	0.2277800	-0.0531700
57	0.9333333	0.2615400	1.8474100	-0.1329300	0.2574500	1.8083300	0.0555100	0.2002600	1.5138500	0.1075500	0.3034400	1.2243900	0.1470700	0.2419700	1.8987600	-0.2955100	0.3770300	2.1791000	-0.4226100	0.4223000	2.4642700	-0.3916100	0.2931600	1.2774800	-0.1294800	0.2942800	1.2783900	-0.0194000	0.2077600	0.7635100	-0.0388100	0.1850100	0.2743200	-0.0312800	0.3090600	1.2702100	-0.2525700	0.2316000	0.7828200	-0.2131300	0.2009400	0.2752200	-0.2179100	0.3752800	0.1971400	-0.2401800	0.3065500	0.2008600	-0.2847900	0.1299200	0.2256000	-0.1906100	0.4034800	0.2019600	-0.0192100	0.3644900	0.2051800	0.0266800	0.1528900	0.2276500	-0.0532800
58	0.9500000	0.2628700	1.8471300	-0.1332400	0.2576600	1.8080500	0.0554500	0.2022400	1.5177100	0.1153700	0.3151700	1.2247400	0.1506300	0.2538000	1.9014900	-0.2997400	0.3869300	2.1765100	-0.4266100	0.4233900	2.4605100	-0.3990500	0.2821000	1.2771500	-0.1337500	0.2949500	1.2781200	-0.0193200	0.2085300	0.7629900	-0.0387700	0.1850200	0.2745100	-0.0313100	0.3092300	1.2702400	-0.2526400	0.2314200	0.7830000	-0.2131000	0.1998800	0.2788400	-0.2180200	0.3661400	0.1952200	-0.2443500	0.3059100	0.2007100	-0.2847700	0.1305600	0.2259100	-0.1906000	0.4030100	0.1985300	-0.0189800	0.3643200	0.2052400	0.0267400	0.1509000	0.2239300	-0.0524300
59	0.9666667	0.2615900	1.8475000	-0.1328900	0.2574900	1.8083300	0.0555600	0.2025900	1.5137300	0.1156800	0.3152400	1.2243700	0.1504300	0.2534800	1.9011100	-0.2993600	0.3775500	2.1783700	-0.4307100	0.4127900	2.4583400	-0.4041500	0.2822300	1.2734100	-0.1334400	0.2944200	1.2737700	-0.0194300	0.2079800	0.7671400	-0.0389700	0.1850100	0.2742500	-0.0312700	0.3090400	1.2701000	-0.2525900	0.2314400	0.7827600	-0.2131700	0.1999800	0.2786800	-0.2182300	0.3653000	0.1948100	-0.2441100	0.3064100	0.2007900	-0.2848000	0.1301300	0.2256600	-0.1905800	0.4031900	0.1984800	-0.0187100	0.3645000	0.2051300	0.0267200	0.1508400	0.2236600	-0.0525800
60	0.9833333	0.2629500	1.8472300	-0.1331400	0.2577300	1.8081200	0.0555000	0.2027700	1.5135900	0.1156000	0.3154400	1.2245500	0.1507100	0.2531000	1.9057700	-0.3000500	0.3775200	2.1777300	-0.4311500	0.4234100	2.4484500	-0.4078300	0.2935300	1.2731600	-0.1296800	0.2951500	1.2735300	-0.0192600	0.1975400	0.7661300	-0.0335900	0.1850700	0.2744900	-0.0313300	0.3093200	1.2702900	-0.2525700	0.2314000	0.7829100	-0.2131000	0.2009300	0.2754100	-0.2176800	0.3559300	0.1927400	-0.2402600	0.3058700	0.2006900	-0.2847200	0.1306000	0.2259300	-0.1905700	0.4030600	0.2024900	-0.0185100	0.3643200	0.2052800	0.0267800	0.1510200	0.2239000	-0.0524800
61	1.0000000	0.2615000	1.8475100	-0.1327500	0.2572200	1.8051300	0.0555000	0.2026400	1.5137300	0.1157500	0.3274300	1.2244100	0.1538700	0.2524800	1.9051200	-0.2996600	0.3780300	2.1661300	-0.4306300	0.4231700	2.4478300	-0.4079500	0.2935600	1.2733600	-0.1293700	0.2944300	1.2736700	-0.0193400	0.2074900	0.7646300	-0.0382600	0.1851500	0.2742700	-0.0312200	0.3092400	1.2700700	-0.2525400	0.2316200	0.7827900	-0.2131600	0.2009900	0.2752600	-0.2179500	0.3753400	0.1969900	-0.2400400	0.3066500	0.2007900	-0.2847200	0.1410300	0.2280800	-0.1949600	0.4033600	0.2025200	-0.0182300	0.3651100	0.2095100	0.0271700	0.1629900	0.2262600	-0.0488100
62	1.0166667	0.2637500	1.8470500	-0.1247400	0.2576700	1.8080500	0.0556600	0.2021800	1.5178600	0.1155200	0.3274300	1.2247000	0.1540900	0.2414700	1.9034100	-0.2961800	0.3892100	2.1549200	-0.4338000	0.4239100	2.4411100	-0.4160400	0.2935200	1.2731200	-0.1295500	0.2847200	1.2734300	-0.0144200	0.2084100	0.7674800	-0.0384300	0.1851300	0.2745800	-0.0312800	0.3093600	1.2702600	-0.2525200	0.2315700	0.7829600	-0.2130700	0.1998400	0.2789000	-0.2180000	0.3660800	0.1948300	-0.2361600	0.3061400	0.2006500	-0.2846500	0.1304000	0.2301200	-0.1911200	0.4032000	0.2025400	-0.0185100	0.3650000	0.2095600	0.0271600	0.1652800	0.2304100	-0.0494000
63	1.0333333	0.2625100	1.8472300	-0.1243700	0.2571400	1.8050700	0.0556700	0.2025800	1.5137200	0.1158300	0.3274800	1.2242200	0.1538600	0.2417600	1.8984600	-0.2954800	0.3804200	2.1452800	-0.4376500	0.4239300	2.4406200	-0.4161900	0.2933200	1.2732700	-0.1292100	0.2838200	1.2735100	-0.0144600	0.1971300	0.7633100	-0.0334300	0.1850500	0.2743000	-0.0312000	0.3090200	1.2701500	-0.2524200	0.2317300	0.7828500	-0.2131300	0.2000700	0.2787400	-0.2182400	0.3652500	0.1943800	-0.2359300	0.3066600	0.2007700	-0.2847000	0.1301500	0.2299200	-0.1911000	0.4032700	0.2024900	-0.0181700	0.3554400	0.2072000	0.0317000	0.1651500	0.2301500	-0.0495500
64	1.0500000	0.2636100	1.8469600	-0.1246800	0.2572100	1.8049600	0.0556300	0.2029100	1.5135500	0.1158000	0.3181000	1.2243500	0.1588700	0.2414100	1.8955000	-0.2961200	0.3806700	2.1411200	-0.4465800	0.4153200	2.4365000	-0.4286300	0.2932800	1.2730600	-0.1295100	0.2843400	1.2733200	-0.0143200	0.2202100	0.7732600	-0.0344100	0.1850500	0.2745800	-0.0312500	0.3092600	1.2702800	-0.2525000	0.2316900	0.7830900	-0.2130400	0.2000100	0.2789400	-0.2180000	0.3661500	0.1948000	-0.2361800	0.3061600	0.2006600	-0.2846800	0.1413900	0.2325800	-0.1954600	0.4028600	0.2058700	-0.0188200	0.3551600	0.2074100	0.0317700	0.1654000	0.2302400	-0.0494700
65	1.0666667	0.2617500	1.8439000	-0.1243500	0.2568900	1.8052100	0.0557500	0.2019500	1.5177600	0.1159000	0.3182900	1.2239800	0.1586900	0.2299000	1.8925200	-0.2917300	0.3804000	2.1222800	-0.4468400	0.4144600	2.4214600	-0.4299500	0.2930600	1.2732900	-0.1291400	0.2732300	1.2734600	-0.0097200	0.2192700	0.7774700	-0.0345900	0.1850900	0.2742600	-0.0311600	0.3089900	1.2701700	-0.2523700	0.2317500	0.7828500	-0.2131500	0.2000200	0.2788200	-0.2182700	0.3650600	0.1945800	-0.2359900	0.3065600	0.2008000	-0.2847400	0.1302400	0.2299900	-0.1910800	0.4030400	0.2058700	-0.0185400	0.3553500	0.2073100	0.0317700	0.1653500	0.2298700	-0.0495600
66	1.0833333	0.2632500	1.8435900	-0.1246100	0.2572400	1.8050100	0.0557500	0.2146200	1.5091900	0.1194200	0.3300000	1.2210200	0.1623300	0.2296700	1.8893600	-0.2923600	0.3711600	2.1153500	-0.4600300	0.4383700	2.3956500	-0.4439600	0.2932800	1.2729300	-0.1292700	0.2743400	1.2687200	-0.0094500	0.2203100	0.7724800	-0.0347300	0.1850000	0.2745800	-0.0312300	0.3093600	1.2702700	-0.2523100	0.2420700	0.7884500	-0.2090000	0.1999000	0.2789500	-0.2179800	0.3659700	0.1949900	-0.2362300	0.3060600	0.2007000	-0.2847100	0.1304500	0.2302400	-0.1910700	0.4028700	0.2059200	-0.0187800	0.3551600	0.2073600	0.0317800	0.1653200	0.2302800	-0.0494400
